<svg width="33" height="25" viewBox="0 0 33 25" fill="none" xmlns="http://www.w3.org/2000/svg">
<path d="M27.9418 2.1348C25.8406 1.1872 23.5884 0.486792 21.2331 0.0885242C21.2121 0.0844975 21.1904 0.0870925 21.171 0.0959503C21.1515 0.104808 21.1353 0.119491 21.1246 0.137964C20.8362 0.644726 20.5148 1.3053 20.2896 1.82717C17.7916 1.45395 15.2521 1.45395 12.7541 1.82717C12.5032 1.2488 12.2203 0.684861 11.9067 0.137964C11.8961 0.119263 11.88 0.104249 11.8606 0.0949242C11.8413 0.0855997 11.8195 0.0824088 11.7983 0.0857774C9.44435 0.484046 7.19207 1.18445 5.08949 2.13343C5.0714 2.14101 5.05607 2.15395 5.04554 2.17051C0.771712 8.45353 -0.399746 14.5814 0.175683 20.6323C0.177284 20.6471 0.181884 20.6615 0.189204 20.6744C0.196523 20.6874 0.206407 20.6988 0.218257 20.7078C2.71278 22.524 5.49509 23.9075 8.44868 24.8004C8.46927 24.8067 8.49129 24.8067 8.51187 24.8003C8.53245 24.794 8.55063 24.7815 8.56404 24.7647C9.19852 23.9132 9.76433 23.0137 10.2478 22.0688C10.2766 22.0139 10.2491 21.948 10.1914 21.926C9.30427 21.5919 8.44467 21.1887 7.62055 20.7202C7.60574 20.7117 7.59327 20.6997 7.58424 20.6853C7.57521 20.6708 7.56991 20.6543 7.56882 20.6373C7.56773 20.6203 7.57089 20.6033 7.578 20.5878C7.58511 20.5723 7.59596 20.5588 7.60957 20.5485C7.78261 20.4208 7.95565 20.2876 8.12045 20.1544C8.13528 20.1424 8.15315 20.1348 8.17206 20.1323C8.19098 20.1299 8.21019 20.1328 8.22757 20.1406C13.6207 22.5632 19.4615 22.5632 24.7914 20.1406C24.8088 20.1323 24.8282 20.1291 24.8474 20.1313C24.8666 20.1334 24.8848 20.141 24.8999 20.153C25.0647 20.2876 25.2364 20.4208 25.4108 20.5485C25.4245 20.5586 25.4356 20.5719 25.4429 20.5873C25.4502 20.6026 25.4536 20.6196 25.4528 20.6366C25.452 20.6536 25.447 20.6701 25.4382 20.6847C25.4294 20.6993 25.4172 20.7115 25.4025 20.7202C24.5813 21.1926 23.7271 21.5923 22.8303 21.9246C22.8165 21.9296 22.804 21.9375 22.7935 21.9477C22.783 21.958 22.7748 21.9703 22.7695 21.984C22.7642 21.9976 22.7618 22.0122 22.7626 22.0269C22.7633 22.0415 22.7672 22.0558 22.774 22.0688C23.2684 23.0123 23.8342 23.9105 24.4563 24.7633C24.4692 24.7808 24.4873 24.7939 24.5079 24.8008C24.5286 24.8076 24.5508 24.808 24.5717 24.8018C27.5303 23.9113 30.3172 22.5272 32.8145 20.7078C32.8266 20.6993 32.8369 20.6883 32.8444 20.6755C32.852 20.6627 32.8568 20.6484 32.8584 20.6337C33.5451 13.6379 31.7075 7.55949 27.9844 2.17325C27.9753 2.15575 27.9602 2.1421 27.9418 2.1348ZM11.0539 16.9476C9.43061 16.9476 8.09161 15.4795 8.09161 13.6791C8.09161 11.8773 9.40452 10.4105 11.0539 10.4105C12.7156 10.4105 14.0423 11.8896 14.0162 13.6791C14.0162 15.4809 12.7033 16.9476 11.0539 16.9476ZM22.0063 16.9476C20.3816 16.9476 19.044 15.4795 19.044 13.6791C19.044 11.8773 20.3555 10.4105 22.0063 10.4105C23.668 10.4105 24.9947 11.8896 24.9686 13.6791C24.9686 15.4809 23.6694 16.9476 22.0063 16.9476Z" fill="white"/>
</svg>
