<svg width="36" height="29" viewBox="0 0 36 29" fill="none" xmlns="http://www.w3.org/2000/svg">
<path d="M35.1576 3.80033C33.895 4.35982 32.5386 4.73785 31.1126 4.90872C32.5839 4.02835 33.6847 2.64275 34.2095 1.01046C32.8272 1.83153 31.3143 2.40947 29.7366 2.71916C28.6757 1.58637 27.2704 0.835544 25.739 0.583242C24.2077 0.330941 22.6358 0.591283 21.2675 1.32385C19.8993 2.05642 18.8112 3.22022 18.1721 4.63458C17.533 6.04893 17.3788 7.6347 17.7333 9.1457C14.9324 9.00506 12.1924 8.27705 9.69099 7.00892C7.18963 5.74078 4.98286 3.96086 3.21391 1.78467C2.60906 2.82803 2.26127 4.03773 2.26127 5.32607C2.2606 6.48586 2.54621 7.62789 3.09276 8.65083C3.63931 9.67376 4.42991 10.546 5.3944 11.1901C4.27584 11.1545 3.18197 10.8523 2.20381 10.3085V10.3992C2.2037 12.0259 2.76637 13.6025 3.79636 14.8615C4.82634 16.1206 6.2602 16.9845 7.85463 17.3066C6.81698 17.5875 5.72909 17.6288 4.67312 17.4276C5.12297 18.8273 5.99924 20.0512 7.17926 20.9281C8.35928 21.805 9.78398 22.2909 11.2539 22.3178C8.75863 24.2767 5.677 25.3392 2.50473 25.3345C1.94279 25.3347 1.38133 25.3019 0.823242 25.2362C4.04328 27.3066 7.79163 28.4054 11.6198 28.4011C24.5787 28.4011 31.6631 17.668 31.6631 8.35939C31.6631 8.05697 31.6555 7.75152 31.6419 7.44909C33.0199 6.45256 34.2093 5.21855 35.1546 3.80487L35.1576 3.80033Z" fill="white"/>
</svg>
